<svg version="1" xmlns="http://www.w3.org/2000/svg" width="700pt" height="700pt" viewBox="0 0 700.000000 700.000000"><path d="M42 2.6C21.7 8 5.4 25.6 2.1 45.8 1.3 50.6 1 136.5 1.2 354l.3 301.5 2.7 6.9c6.3 16.4 19.3 28.9 35.3 33.9l7 2.2h607l7.1-2.2c18.5-5.8 33.8-23 37.4-41.8.8-4.4 1-85.5.8-308l-.3-302-2.3-6.5c-6.3-17.7-22.6-32.3-40-35.9-3.8-.8-92.8-1.1-307-1C88 1.1 46.8 1.3 42 2.6zm697.5 7121.2c32.1 5.1 58 14.4 80 28.7 10.4 6.9 30.5 26.9 37.4 37.4 21.4 32.6 32.1 76.8 32.1 132-.1 54.9-10.6 97.8-32 130.5-7.7 11.7-26.1 30.3-37.5 37.8-16.9 11.1-39.3 20.3-61.3 25.2-24 5.3-24.3 5.3-110.4 5.7l-80.8.4v-400.2l80.8.4c70.4.3 82.1.6 91.7 2.1zM226.6 349c-.4 91.9-.4 167.5-.1 168 1 1.7 97.2 1.2 114-.5 44.1-4.5 71.4-15.6 93.6-37.7 29-29 41.5-76.2 38.7-145.9-3-75.2-29.8-120.5-82.1-138.9-28.3-9.9-48.1-12-114.1-12h-49.3l-.7 167z"/></svg>