<svg xmlns="http://www.w3.org/2000/svg" xmlns:xlink="http://www.w3.org/1999/xlink" width="125" height="55" viewBox="0 0 125 55"><defs><style>.cls-1 { fill: #ccd6dd; } .cls-2 { fill: url(#linear-gradient); } .cls-3 { fill: url(#linear-gradient-2); } .cls-4 { fill: url(#linear-gradient-3); }</style><linearGradient id="linear-gradient" x1=".964" y1="35.728" x2="26.114" y2="9.232" gradientUnits="userSpaceOnUse"><stop offset=".001" stop-color="#aabac1"/><stop offset="1" stop-color="#dae1e5"/></linearGradient><linearGradient id="linear-gradient-2" x1="22.039" y1="32.834" x2="9.25" y2="42.849" xlink:href="#linear-gradient"/><linearGradient id="linear-gradient-3" x1="1.401" y1="21.839" x2="10.692" y2="12.79" gradientUnits="userSpaceOnUse"><stop offset="0" stop-color="#dae1e5"/><stop offset=".999" stop-color="#aabac1"/></linearGradient></defs><title>koltin-logo</title><path class="cls-1" d="M35.537 14.62h5.59v11.11L51.44 14.62h6.754L47.846 25.4l10.82 14.633h-6.718l-7.88-10.82-2.94 3.05v7.77h-5.59zM55.694 30.413v-.072A10.215 10.215 0 0 1 66.26 20.21c6.027 0 10.493 4.466 10.493 10.058v.073a10.215 10.215 0 0 1-10.566 10.13c-6.027 0-10.493-4.465-10.493-10.057zm15.613 0v-.072a5.17 5.17 0 0 0-5.12-5.373 4.985 4.985 0 0 0-5.047 5.3v.073a5.17 5.17 0 0 0 5.12 5.373 4.985 4.985 0 0 0 5.047-5.3zM78.277 34.516v-9.222h-2.324v-4.72h2.324V15.6H83.8v4.974h4.575v4.72H83.8v8.316c0 1.27.544 1.888 1.78 1.888a5.607 5.607 0 0 0 2.722-.69v4.43a8.135 8.135 0 0 1-4.357 1.125c-3.376 0-5.664-1.344-5.664-5.846zM89.955 13.53h5.52v26.505h-5.52zm7.514 0h5.808v4.9h-5.81zm.145 7.043h5.518v19.462h-5.52zm7.618 0h5.52v2.76a6.886 6.886 0 0 1 5.7-3.123c4.175 0 6.608 2.76 6.608 7.226v12.6h-5.518V29.18c0-2.616-1.235-3.96-3.34-3.96s-3.45 1.344-3.45 3.96v10.855h-5.52z"/><path class="cls-2" d="M14.7 14.606L1.94 28.023v12L14.68 27.26l12.67-12.654z"/><path class="cls-3" d="M1.94 40.018l12.74-12.763 12.67 12.763z"/><path class="cls-4" d="M1.94 14.606H14.7L1.94 28.023z"/></svg>